<?xml version="1.0" standalone="no"?>
<!DOCTYPE svg PUBLIC "-//W3C//DTD SVG 20010904//EN"
 "http://www.w3.org/TR/2001/REC-SVG-20010904/DTD/svg10.dtd">
<svg version="1.0" xmlns="http://www.w3.org/2000/svg"
 width="800.000000pt" height="800.000000pt" viewBox="0 0 800.000000 800.000000"
 preserveAspectRatio="xMidYMid meet">

<g transform="translate(0.000000,800.000000) scale(0.100000,-0.100000)"
fill="#000000" stroke="none">
<path d="M3725 6024 c-675 -91 -1260 -515 -1561 -1129 -137 -281 -204 -574
-204 -895 0 -541 199 -1032 574 -1419 392 -403 907 -621 1466 -621 733 0 1389
378 1768 1020 290 492 353 1129 164 1680 -101 297 -253 540 -482 771 -288 292
-599 466 -1000 562 -189 46 -516 60 -725 31z m575 -750 c191 -36 357 -121 485
-250 86 -86 130 -152 175 -261 40 -100 50 -159 50 -299 0 -350 -142 -650 -384
-811 -106 -71 -216 -106 -356 -111 -99 -4 -124 -1 -179 18 -70 23 -129 60
-175 109 l-30 31 -57 -212 c-73 -271 -108 -348 -246 -540 -63 -88 -79 -99 -93
-62 -17 43 -28 272 -20 374 7 81 76 399 125 580 8 30 30 116 48 190 l33 135
-19 55 c-27 79 -33 201 -13 277 20 82 45 129 92 177 101 104 267 102 335 -4
53 -81 47 -169 -27 -406 -64 -208 -76 -265 -65 -314 11 -51 31 -82 76 -116 75
-57 139 -65 248 -33 63 19 79 29 137 88 108 108 150 196 196 411 21 95 23 287
5 360 -36 147 -143 272 -286 333 -193 84 -479 69 -663 -35 -205 -115 -332
-331 -332 -564 0 -105 27 -195 80 -265 22 -30 40 -56 40 -60 0 -31 -44 -166
-59 -180 -18 -17 -21 -16 -81 12 -34 16 -67 26 -73 22 -7 -3 -9 -3 -5 2 4 4
-15 32 -42 62 -99 108 -144 242 -144 428 0 137 20 228 78 345 49 99 90 155
170 236 162 161 345 247 616 288 70 10 285 5 360 -10z"/>
</g>
</svg>
